PathFileType	4	(X/Y/Z)	/Users/niels/Desktop/University/Third Semester/Perception and Action/Exam/Gymnastics Motion Tracking/Code for Gym Tracking/Analyzed Data/Webcam_Backflip/id2001_2_trajectory_Sports2D/id2001_2_trajectory_Sports2D_px_person00.trc
DataRate	CameraRate	NumFrames	NumMarkers	Units	OrigDataRate	OrigDataStartFrame	OrigNumFrames
29.887218045112782	29.887218045112782	8	22	m	29.887218045112782	0	266
Frame#	Time	Hip			RHip			RKnee			RAnkle			RBigToe			RSmallToe			RHeel			LHip			LKnee			LAnkle			LBigToe			LSmallToe			LHeel			Neck			Head			Nose			RShoulder			RElbow			RWrist			LShoulder			LElbow			LWrist		
		X1	Y1	Z1	X2	Y2	Z2	X3	Y3	Z3	X4	Y4	Z4	X5	Y5	Z5	X6	Y6	Z6	X7	Y7	Z7	X8	Y8	Z8	X9	Y9	Z9	X10	Y10	Z10	X11	Y11	Z11	X12	Y12	Z12	X13	Y13	Z13	X14	Y14	Z14	X15	Y15	Z15	X16	Y16	Z16	X17	Y17	Z17	X18	Y18	Z18	X19	Y19	Z19	X20	Y20	Z20	X21	Y21	Z21	X22	Y22	Z22
0	0.0	0.9528144654693993	-0.7132725817896097	0.0	0.9267238459159544	-0.7210885524878332	0.0	0.9449816658119651	-1.0707458616312069	0.0	0.6144375000000001	-1.0131591796875001	0.0	0.5780625000000004	-1.0279619140625	0.0	0.5727187499999999	-1.0405371093750002	0.0	0.5727187499999999	-0.9774267578124999	0.0	0.9971781084592768	-0.7263157891192277	0.0	1.0102228713382744	-1.0681446345378478	0.0	1.0509774169921875	-1.095851440429687	0.0	0.6878120117187501	-1.0321572265625	0.0	0.5439375	-1.0099912109375	0.0	0.6144375000000001	-0.9972509765624998	0.0	0.9919358954281404	-0.21231750138608033	0.0	1.111973776721021	-0.032283076342771506	0.0	1.091091809388492	-0.1444766951915491	0.0	0.9293058061877147	-0.22014539057194132	0.0	0.7544837281649521	-0.3349747276155371	0.0	0.9371496031224658	-0.5358727952125588	0.0	1.0258648613515176	-0.2958204210847078	0.0	1.0258482774942166	-0.4367040479957628	0.0	1.0285155112312288	-0.5567376803416981	0.0
1	0.03345911949685535	0.9525896047444881	-0.7113723124410851	0.0	0.9270556958070992	-0.7222365909812393	0.0	0.9467196046471749	-1.06902916243064	0.0	0.6144375000000001	-1.0131591796875001	0.0	0.5780625000000004	-1.0279619140625	0.0	0.5727187499999999	-1.0405371093750002	0.0	0.5727187499999999	-0.9774267578124999	0.0	0.9953190491467183	-0.7265086210812501	0.0	1.0104603868121167	-1.0674861582835118	0.0	1.0509774169921875	-1.095851440429687	0.0	0.6878120117187501	-1.0321572265625	0.0	0.5439375	-1.0099912109375	0.0	0.6144375000000001	-0.9972509765624998	0.0	0.9956086764182083	-0.2119668588726063	0.0	1.1155261290517486	-0.03209145878382292	0.0	1.0941760156669904	-0.14192992694756512	0.0	0.9351178294292025	-0.2191169492542417	0.0	0.7593275504496209	-0.330925041688011	0.0	0.9445637092046668	-0.5261701875429833	0.0	1.025782061269771	-0.2908997875545065	0.0	1.0190797567633267	-0.4260212562301927	0.0	1.031620521387203	-0.5456908680807766	0.0
2	0.0669182389937107	0.9531063186921596	-0.7100358355109995	0.0	0.9277041909853204	-0.7237129632930319	0.0	0.9477659309732729	-1.067408283912779	0.0	0.6144375000000001	-1.0131591796875001	0.0	0.5780625000000004	-1.0279619140625	0.0	0.5727187499999999	-1.0405371093750002	0.0	0.5727187499999999	-0.9774267578124999	0.0	0.9941676157737477	-0.7273316906425084	0.0	1.010774433370236	-1.0667247744513242	0.0	1.0509774169921875	-1.095851440429687	0.0	0.6878120117187501	-1.0321572265625	0.0	0.5439375	-1.0099912109375	0.0	0.6144375000000001	-0.9972509765624998	0.0	0.9994650051387164	-0.21177331221534396	0.0	1.1187941689311338	-0.0319998965015004	0.0	1.0973330973115276	-0.1399771640203294	0.0	0.9409249648732609	-0.21785512927898942	0.0	0.7640184722103381	-0.3259061416766829	0.0	0.9506208382323272	-0.5166939579197821	0.0	1.0264645581751337	-0.28647798638543265	0.0	1.0133488045526948	-0.4176398950534465	0.0	1.0334063114919532	-0.5357420552125776	0.0
3	0.10037735849056606	0.9548022009984827	-0.7095410668673603	0.0	0.9289136235983084	-0.7256499233133669	0.0	0.9480850571313616	-1.065966752424073	0.0	0.6144375000000001	-1.0131591796875001	0.0	0.5780625000000004	-1.0279619140625	0.0	0.5727187499999999	-1.0405371093750002	0.0	0.5727187499999999	-0.9774267578124999	0.0	0.9941068084606631	-0.7290669727325771	0.0	1.0113642571529085	-1.0657757310362639	0.0	1.0509774169921875	-1.095851440429687	0.0	0.6878120117187501	-1.0321572265625	0.0	0.5439375	-1.0099912109375	0.0	0.6144375000000001	-0.9972509765624998	0.0	1.00360814263673	-0.21187070384668502	0.0	1.1216551354729623	-0.03219655628566339	0.0	1.1007367006180937	-0.13896805638393617	0.0	0.9467156144615337	-0.2163685464111811	0.0	0.7684327562137295	-0.3193938576940329	0.0	0.9545114976984368	-0.5078996894358236	0.0	1.028435005637858	-0.2830204307656407	0.0	1.0087991408563717	-0.4130012772602748	0.0	1.0331811619295812	-0.5280191528799167	0.0
4	0.1338364779874214	0.9577145915377745	-0.709827289677009	0.0	0.9308319572956258	-0.7278806428847273	0.0	0.948433672240927	-1.064788637542742	0.0	0.6144375000000001	-1.0131591796875001	0.0	0.5780625000000004	-1.0279619140625	0.0	0.5727187499999999	-1.0405371093750002	0.0	0.5727187499999999	-0.9774267578124999	0.0	0.99513678681255	-0.7315085234178268	0.0	1.0123535450034165	-1.06462217235028	0.0	1.0509774169921875	-1.095851440429687	0.0	0.6878120117187501	-1.0321572265625	0.0	0.5439375	-1.0099912109375	0.0	0.6144375000000001	-0.9972509765624998	0.0	1.008047345045216	-0.21235119434603447	0.0	1.124115560069713	-0.0329356401062968	0.0	1.1045322963259563	-0.13898045352427735	0.0	0.9524621188474036	-0.2149197874248213	0.0	0.7724871603457327	-0.3115099610146121	0.0	0.9561611655584056	-0.5004002165466375	0.0	1.031817592575915	-0.28092338000489325	0.0	1.005140200082251	-0.4126916714613662	0.0	1.0312500800351436	-0.5236785051754901	0.0
5	0.16729559748427675	0.9616121433881027	-0.7106629588143271	0.0	0.9335051144220984	-0.7300691289257115	0.0	0.9497759519766137	-1.0639215437879888	0.0	0.6144375000000001	-1.0131591796875001	0.0	0.5780625000000004	-1.0279619140625	0.0	0.5727187499999999	-1.0405371093750002	0.0	0.5727187499999999	-0.9774267578124999	0.0	0.9971070229633107	-0.7341327673831441	0.0	1.0136747993980293	-1.0633441406112885	0.0	1.0509774169921875	-1.095851440429687	0.0	0.6878120117187501	-1.0321572265625	0.0	0.5439375	-1.0099912109375	0.0	0.6144375000000001	-0.9972509765624998	0.0	1.0127388532323238	-0.21332324341972422	0.0	1.1262286270952628	-0.03445429731192265	0.0	1.1086367775835502	-0.13998449426044307	0.0	0.9581081423880567	-0.21394681842905672	0.0	0.7761504963374829	-0.30299599804433053	0.0	0.9559557187049268	-0.49472036542908626	0.0	1.0363600425807844	-0.28045495790584263	0.0	1.0027907696083465	-0.41654495049845236	0.0	1.028474428949411	-0.52348856872435	0.0
6	0.20075471698113212	0.9660955719826914	-0.711803392492474	0.0	0.936771528599505	-0.7319450367534838	0.0	0.9525756503114207	-1.0633950972458477	0.0	0.6144375000000001	-1.0131591796875001	0.0	0.5780625000000004	-1.0279619140625	0.0	0.5727187499999999	-1.0405371093750002	0.0	0.5727187499999999	-0.9774267578124999	0.0	0.9998692379269434	-0.7364295711521714	0.0	1.0152587014601238	-1.0621292658124533	0.0	1.0509774169921875	-1.095851440429687	0.0	0.6878120117187501	-1.0321572265625	0.0	0.5439375	-1.0099912109375	0.0	0.6144375000000001	-0.9972509765624998	0.0	1.01756541976977	-0.21491742152061669	0.0	1.1281164343631633	-0.03687734068664692	0.0	1.1127308201326123	-0.14194222208721896	0.0	0.9635266558456279	-0.21391997312406896	0.0	0.7794225208737193	-0.2949788024698709	0.0	0.9543758503829299	-0.4911202250051677	0.0	1.0415706688252018	-0.28165343424313516	0.0	1.0029755345366849	-0.42331611874885705	0.0	1.0256049609697515	-0.5272280496715332	0.0
7	0.23421383647798746	0.9707002421483752	-0.712999351019502	0.0	0.9403218688892613	-0.7333694286484879	0.0	0.9566644925900412	-1.0633042125524432	0.0	0.6144375000000001	-1.0131591796875001	0.0	0.5780625000000004	-1.0279619140625	0.0	0.5727187499999999	-1.0405371093750002	0.0	0.5727187499999999	-0.9774267578124999	0.0	1.003272804947981	-0.7380868396472814	0.0	1.017111799672699	-1.0612696381974809	0.0	1.0509774169921875	-1.095851440429687	0.0	0.6878120117187501	-1.0321572265625	0.0	0.5439375	-1.0099912109375	0.0	0.6144375000000001	-0.9972509765624998	0.0	1.022315153579819	-0.21723126578573002	0.0	1.1300348195060015	-0.040166821660714364	0.0	1.1164697823451748	-0.14480158251953082	0.0	0.9685491192459318	-0.2151375206579685	0.0	0.7822517683403247	-0.2885861275231916	0.0	0.9518769522422165	-0.48947086133633017	0.0	1.0469362783898235	-0.2843492473782556	0.0	1.0062496093334676	-0.43086936384881525	0.0	1.0232057573087343	-0.533510909340987	0.0
